<svg width="32" height="49" viewBox="0 0 32 49" fill="none" xmlns="http://www.w3.org/2000/svg">
<path fill-rule="evenodd" clip-rule="evenodd" d="M23.3958 24.3033C23.3524 24.5778 23.2466 24.839 23.0863 25.0673C22.926 25.2957 22.7154 25.4854 22.4703 25.6221C21.9766 25.9366 21.5447 26.0938 21.1077 26.2511C20.177 26.5681 19.1974 26.8851 18.1613 27.2528C17.0687 27.6206 16.0891 27.9883 15.215 28.2546C14.1249 28.6224 13.0888 28.9394 12.1041 29.3071C11.3633 29.6199 10.6674 30.0274 10.0345 30.5194C9.44584 31.0455 8.93212 31.6478 8.50734 32.3099C8.07027 33.0454 7.79518 33.9939 7.79518 35.0997C7.79518 37.3138 8.34022 38.9978 9.43289 40.0503C10.523 41.1586 12.5438 41.6836 15.5389 41.6836C18.5932 41.6836 20.6654 41.1053 21.7607 39.9463C22.8482 38.7873 23.3932 37.1565 23.3932 35.0515V24.3033H23.3958ZM15.5415 0.970703C20.8891 0.970703 24.815 1.97248 27.3217 4.02677C29.831 6.03033 31.0856 8.60706 31.0856 11.6606V37.6815C31.0856 38.734 30.8696 39.893 30.4891 41.156C30.1035 42.4241 29.3425 43.5806 28.1418 44.6306C26.9977 45.6881 25.4166 46.5834 23.3984 47.2682C21.3802 47.9529 18.7629 48.3207 15.5441 48.3207C12.3304 48.3207 9.70798 47.9529 7.69234 47.2682C5.6767 46.5834 4.09298 45.6881 2.9489 44.6306C1.8846 43.6844 1.07834 42.4897 0.604178 41.156C0.218532 39.8956 0 38.7365 0 37.684V33.5248C0 31.3107 0.599036 29.2564 1.79968 27.4633C3.00032 25.6221 4.68945 24.3591 6.8722 23.5678C7.96229 23.2001 9.21692 22.8323 10.6335 22.3581C12.0527 21.8813 13.3588 21.407 14.6699 20.9886C15.9811 20.565 17.1252 20.1415 18.1048 19.7712C18.6959 19.5379 19.2963 19.3281 19.9044 19.1422L20.8866 18.668C21.2722 18.4575 21.6501 18.1405 22.0332 17.7195C22.4137 17.301 22.7402 16.8267 23.0153 16.2992C23.306 15.728 23.4557 15.0971 23.4524 14.458V12.7714C23.4564 12.1533 23.3249 11.5416 23.0667 10.9784C22.8508 10.3443 22.4137 9.76608 21.8147 9.2411C21.2156 8.71358 20.3955 8.29258 19.416 7.97302C18.4338 7.66107 17.1278 7.5013 15.6521 7.5013C12.5977 7.5013 10.5795 8.08461 9.48945 9.29182C8.5639 10.3469 8.01885 11.6631 7.91087 13.1366C7.91087 13.4536 7.63835 13.6641 7.30927 13.6641L0.658168 13.7707C0.500177 13.7713 0.348309 13.7104 0.235632 13.6012C0.122956 13.4919 0.0585941 13.3432 0.0565613 13.1873V11.6657C0.0565613 10.1871 0.331655 8.81756 0.930691 7.5013C1.5323 6.1825 2.46042 5.07927 3.71248 4.12821C4.96711 3.18223 6.60482 2.39348 8.56647 1.86596C10.4767 1.23193 12.8214 0.970703 15.5466 0.970703H15.5415Z" fill="#0A3871"/>
</svg>
